<svg height="64" preserveAspectRatio="none" viewBox="0 0 64 64" width="64" xmlns="http://www.w3.org/2000/svg"><circle cx="32" cy="32" r="27.3125"/><path d="m32 60.8125c-15.887207 0-28.8125-12.9248047-28.8125-28.8125 0-15.887207 12.925293-28.8125 28.8125-28.8125 15.8876953 0 28.8125 12.925293 28.8125 28.8125 0 15.8876953-12.9248047 28.8125-28.8125 28.8125zm0-54.625c-14.2329102 0-25.8125 11.5795898-25.8125 25.8125 0 14.2333984 11.5795898 25.8125 25.8125 25.8125 14.2333984 0 25.8125-11.5791016 25.8125-25.8125 0-14.2329102-11.5791016-25.8125-25.8125-25.8125z"/><g fill="#fff"><ellipse cx="19.985107" cy="22.416992" rx="3.693115" ry="4.666992"/><ellipse cx="44.015137" cy="22.416992" rx="3.692871" ry="4.666992"/><path d="m32 49.7714844c-5.8666992 0-11.3681641-2.6015625-15.4916992-7.3251953-.5830078-.6679688-.5141602-1.6816406.1538086-2.2646484.6679688-.5820313 1.6821289-.5136719 2.2651367.1533203 3.5043945 4.0146484 8.1469727 6.2255859 13.0727539 6.2255859 4.9267578 0 9.5693359-2.2109375 13.0722656-6.2255859.5810547-.6660156 1.5957031-.7373047 2.265625-.1542969.6679688.5830078.7363281 1.5976563.1542969 2.265625-4.1230469 4.7236328-9.6240234 7.3251953-15.4921875 7.3251953z"/></g></svg>